<svg width="64" height="64" viewBox="0 0 100 100" fill="none" xmlns="http://www.w3.org/2000/svg" class="undefined cursor-pointer hover:opacity-80 transition-opacity" title="Click to download SVG" data-fg-d3bl31="0.8:3.1514:/src/app/App.tsx:86:15:3204:41:e:ShoeboxLogo::::::BYf3" data-fg-c0xo16="1.9:3.860:/src/app/components/icons/ShoeboxIcons.tsx:112:7:2934:52:e:ShoeboxIcon::::::8UX" data-fg-c0xo0="1.9:3.860:/src/app/components/icons/ShoeboxIcons.tsx:35:5:993:1687:e:svg:xtetxtetxtetetxtetxtetxte"><path d="M10 25C10 22.7909 11.7909 21 14 21H86C88.2091 21 90 22.7909 90 25V33C90 34.1046 89.1046 35 88 35H12C10.8954 35 10 34.1046 10 33V25Z" stroke="#1a1a1a" stroke-width="6" stroke-linejoin="round" data-fg-c0xo2="1.9:3.860:/src/app/components/icons/ShoeboxIcons.tsx:48:7:1342:236:e:path"/><path d="M15 35V75C15 77.2091 16.7909 79 19 79H81C83.2091 79 85 77.2091 85 75V35" stroke="#1a1a1a" stroke-width="6" stroke-linejoin="round" data-fg-c0xo4="1.9:3.860:/src/app/components/icons/ShoeboxIcons.tsx:56:7:1615:176:e:path"/><path d="M22 45H28" stroke="#1a1a1a" stroke-width="4" stroke-linecap="round" data-fg-c0xo6="1.9:3.860:/src/app/components/icons/ShoeboxIcons.tsx:64:7:1833:75:e:path"/><path d="M72 45H78" stroke="#1a1a1a" stroke-width="4" stroke-linecap="round" data-fg-c0xo7="1.9:3.860:/src/app/components/icons/ShoeboxIcons.tsx:65:7:1915:75:e:path"/><path d="M38 38V32C38 25.3726 43.3726 20 50 20C56.6274 20 62 25.3726 62 32V38" stroke="#1a1a1a" stroke-width="6" stroke-linecap="round" data-fg-c0xo9="1.9:3.860:/src/app/components/icons/ShoeboxIcons.tsx:68:7:2028:172:e:path"/><rect x="32" y="38" width="36" height="28" rx="4" fill="white" stroke="#1a1a1a" stroke-width="6" data-fg-c0xo11="1.9:3.860:/src/app/components/icons/ShoeboxIcons.tsx:76:7:2235:166:e:rect"/><text x="50" y="57" fill="#1a1a1a" font-size="14" font-weight="bold" text-anchor="middle" font-family="ui-monospace, monospace" data-fg-c0xo13="1.9:3.860:/src/app/components/icons/ShoeboxIcons.tsx:88:7:2459:210:e:text:t">~$</text></svg>